# xmcd CD database file
# Copyright (C) 1993-1998 Ti Kan
#
# Track frame offsets:
#  200
#  14495
#  26092
#  40837
#  57852
#  69510
#  84182
#  100127
#  115055
#  136810
#  154350
#  169122
#  185352
#
# Disc length: 2622 seconds
#
# Revision: 1
# Processed by: cddbd v1.4b41PL1 Copyright (c) Steve Scherf et al.
# Submitted via: KiC 2.1 - (C) 1996-1998 Alwin Hoogerdijk
#
DISCID=a20a3c0d
DTITLE=The Isaacs - Bridges
DYEAR=1900
DGENRE=
TTITLE0=A Man Without God
TTITLE1=The Sunny Side of Life
TTITLE2=He's Here with Me
TTITLE3=Man on the Mule
TTITLE4=In God's Hands
TTITLE5=That's All That Matter to Me
TTITLE6=The Lowest Valley
TTITLE7=Wandering Boy
TTITLE8=Wish You Were Here
TTITLE9=The Bridges That You've Burned
TTITLE10=He Lifts Me
TTITLE11=Dreaming of a Little Cabin
TTITLE12=The Least I Can Do
EXTD=
EXTT0=
EXTT1=
EXTT2=
EXTT3=
EXTT4=
EXTT5=
EXTT6=
EXTT7=
EXTT8=
EXTT9=
EXTT10=
EXTT11=
EXTT12=
PLAYORDER=
